# xmcd
#
# Track frame offsets:
#	150
#	18188
#	34158
#	64275
#	86020
#	114093
#	127085
#	148593
#	180480
#	209220
#	224250
#	237330
#	262800
#	274245
#	287420
#	312880
#	341452
#
# Disc length: 4724 seconds
#
# Revision: 1
# Processed by: cddbd v1.4PL0 Copyright (c) Steve Scherf et al.
# Submitted via: audiograbber 1.80
#
DISCID=fd127211
DTITLE=Buddy Guy - This is Buddy Guy (1-8) and A Man And the Blues (9-17)
DYEAR=1900
DGENRE=
TTITLE0=I got My Eyes on You
TTITLE1=The Things I Used to Do
TTITLE2=(You Give Me) Fever
TTITLE3=Knock on Wood
TTITLE4=I Had a Dream Last Night
TTITLE5=24 Hours of the Day
TTITLE6=You Were Wrong
TTITLE7=I`m not the Best
TTITLE8=A Man and the Blues
TTITLE9=I Can`t Quit the Blues
TTITLE10=Money (That`s What I Want)
TTITLE11=One Room Country Shack
TTITLE12=Mary Had a Little Lamb
TTITLE13=Just Playing My Axe
TTITLE14=Sweet Little Angel
TTITLE15=Worry, Worry
TTITLE16=Jam on a Monday Morning
EXTD=
EXTT0=
EXTT1=
EXTT2=
EXTT3=
EXTT4=
EXTT5=
EXTT6=
EXTT7=
EXTT8=
EXTT9=
EXTT10=
EXTT11=
EXTT12=
EXTT13=
EXTT14=
EXTT15=
EXTT16=
PLAYORDER=
